<svg id="Layer_1" data-name="Layer 1" xmlns="http://www.w3.org/2000/svg" viewBox="0 0 140 140"><defs><style>.cls-1{fill:#fff;}.cls-2{fill:#3e4c70;}.cls-3{fill:#d62027;}</style></defs><title>zbx</title><circle class="cls-1" cx="70.04" cy="70.25" r="69"/><path class="cls-2" d="M42.78,101.86,48.53,79,51,60.78a19.77,19.77,0,0,1,39.55,0L93,79l5.68,22.73Zm28-55.78A14.88,14.88,0,0,0,55.88,60.95l0,.32L53.33,80.1,49.08,96.94l43.27-.07-4.24-17-2.5-18.88A14.88,14.88,0,0,0,70.74,46.08Z"/><path class="cls-2" d="M78.77,43.63H73.86v-4.4a3,3,0,0,0-6,0v4.4H62.93v-4.4a7.92,7.92,0,1,1,15.84,0Z"/><path class="cls-2" d="M70.85,109.18a6.7,6.7,0,0,1-6.69-6.69v-4.4h2.45v4.4a4.24,4.24,0,0,0,8.47,0v-4.4h2.45v4.4A6.7,6.7,0,0,1,70.85,109.18Z"/><rect class="cls-2" x="65.57" y="79.54" width="24.25" height="2.45"/><path class="cls-3" d="M97.31,77a1.24,1.24,0,1,1,0-2.47,7,7,0,1,0,0-14,1.24,1.24,0,1,1,0-2.47,9.48,9.48,0,0,1,0,19Z"/><path class="cls-3" d="M97.82,84.56a1.75,1.75,0,1,1,0-3.51,13.71,13.71,0,1,0,0-27.42,1.75,1.75,0,1,1,0-3.51,17.22,17.22,0,1,1,0,34.43Z"/><path class="cls-3" d="M42.77,76.68a9.48,9.48,0,1,1,0-19,1.24,1.24,0,0,1,0,2.47,7,7,0,1,0,0,14,1.24,1.24,0,0,1,0,2.47Z"/><path class="cls-3" d="M42.25,84.56a17.22,17.22,0,0,1,0-34.43,1.75,1.75,0,1,1,0,3.51,13.71,13.71,0,0,0,0,27.42,1.75,1.75,0,1,1,0,3.51Z"/></svg>