<svg id="Layer_1" data-name="Layer 1" xmlns="http://www.w3.org/2000/svg" viewBox="0 0 140 140"><defs><style>.cls-1{fill:#fff;}.cls-2{fill:#d62027;}.cls-3{fill:#3e4c70;}.cls-4{fill:#158aff;}</style></defs><title>zbx</title><circle class="cls-1" cx="70" cy="70" r="69"/><path class="cls-2" d="M58.15,40.17a5,5,0,1,1,5-5A5,5,0,0,1,58.15,40.17Zm0-8a3,3,0,1,0,3,3A3,3,0,0,0,58.15,32.17Z"/><path class="cls-2" d="M33.15,60.17a5,5,0,1,1,5-5A5,5,0,0,1,33.15,60.17Zm0-8a3,3,0,1,0,3,3A3,3,0,0,0,33.15,52.17Z"/><path class="cls-2" d="M84.15,66.17a5,5,0,1,1,5-5A5,5,0,0,1,84.15,66.17Zm0-8a3,3,0,1,0,3,3A3,3,0,0,0,84.15,58.17Z"/><path class="cls-2" d="M108.15,40.17a5,5,0,1,1,5-5A5,5,0,0,1,108.15,40.17Zm0-8a3,3,0,1,0,3,3A3,3,0,0,0,108.15,32.17Z"/><rect class="cls-3" x="19.73" y="104.02" width="100.53" height="3.97"/><path class="cls-3" d="M35.49,101H30.43a7,7,0,0,1-7-7V73a7,7,0,0,1,7-7h5.06a7,7,0,0,1,7,7V94A7,7,0,0,1,35.49,101ZM30.43,68a5,5,0,0,0-5,5V94a5,5,0,0,0,5,5h5.06a5,5,0,0,0,5-5V73a5,5,0,0,0-5-5Z"/><path class="cls-3" d="M60.49,101H55.43a7,7,0,0,1-7-7V53a7,7,0,0,1,7-7h5.06a7,7,0,0,1,7,7V94A7,7,0,0,1,60.49,101ZM55.43,48a5,5,0,0,0-5,5V94a5,5,0,0,0,5,5h5.06a5,5,0,0,0,5-5V53a5,5,0,0,0-5-5Z"/><path class="cls-3" d="M86.49,101H81.43a7,7,0,0,1-7-7V83a7,7,0,0,1,7-7h5.06a7,7,0,0,1,7,7V94A7,7,0,0,1,86.49,101ZM81.43,78a5,5,0,0,0-5,5V94a5,5,0,0,0,5,5h5.06a5,5,0,0,0,5-5V83a5,5,0,0,0-5-5Z"/><path class="cls-4" d="M110.49,101h-5.06a7,7,0,0,1-7-7V58a7,7,0,0,1,7-7h5.06a7,7,0,0,1,7,7V94A7,7,0,0,1,110.49,101Zm-5.06-48a5,5,0,0,0-5,5V94a5,5,0,0,0,5,5h5.06a5,5,0,0,0,5-5V58a5,5,0,0,0-5-5Z"/><rect class="cls-2" x="34.11" y="44.54" width="23.89" height="2" transform="translate(-18.63 42.28) rotate(-41.79)"/><rect class="cls-2" x="70.15" y="33.52" width="2" height="28.7" transform="translate(-13.24 63.11) rotate(-44.17)"/><rect class="cls-2" x="82.98" y="47.88" width="27.65" height="2" transform="translate(-3.89 89.14) rotate(-48.58)"/></svg>