<svg id="Layer_1" data-name="Layer 1" xmlns="http://www.w3.org/2000/svg" viewBox="0 0 140 140"><defs><style>.cls-1{fill:#fff;}.cls-2{fill:#3e4c70;}.cls-3{fill:#158aff;}.cls-4{fill:#d62027;}</style></defs><title>zbx</title><circle class="cls-1" cx="70" cy="70" r="69"/><path class="cls-2" d="M50,57H33.46a7,7,0,0,1-7-7V42.94a7,7,0,0,1,7-7H54.29v2H33.46a5,5,0,0,0-5,5V50a5,5,0,0,0,5,5H50Z"/><rect class="cls-2" x="34.63" y="43.01" width="16.67" height="1.98"/><rect class="cls-2" x="34.63" y="48.01" width="15.67" height="1.98"/><circle class="cls-1" cx="79.29" cy="46.67" r="4"/><path class="cls-3" d="M79.29,44.67a2,2,0,1,1-2,2,2,2,0,0,1,2-2m0-2a4,4,0,1,0,4,4,4,4,0,0,0-4-4Z"/><path class="cls-4" d="M84.46,81h-51a7,7,0,0,1-7-7V66.94a7,7,0,0,1,7-7H49.15v2H33.46a5,5,0,0,0-5,5V74a5,5,0,0,0,5,5h51Z"/><rect class="cls-4" x="34.63" y="67" width="19.67" height="2"/><rect class="cls-4" x="34.63" y="72" width="19.67" height="2"/><path class="cls-2" d="M84.46,106h-51a7,7,0,0,1-7-7V91.94a7,7,0,0,1,7-7h51a7,7,0,0,1,7,7V99A7,7,0,0,1,84.46,106Zm-51-19.06a5,5,0,0,0-5,5V99a5,5,0,0,0,5,5h51a5,5,0,0,0,5-5V91.94a5,5,0,0,0-5-5Z"/><rect class="cls-2" x="34.63" y="92.01" width="30.67" height="1.98"/><rect class="cls-2" x="34.63" y="97.01" width="19.67" height="1.98"/><circle class="cls-1" cx="79.29" cy="95.67" r="4"/><path class="cls-3" d="M79.29,93.67a2,2,0,1,1-2,2,2,2,0,0,1,2-2m0-2a4,4,0,1,0,4,4,4,4,0,0,0-4-4Z"/><circle class="cls-1" cx="75.56" cy="51.95" r="20" transform="translate(-14.6 68.65) rotate(-45)"/><path class="cls-2" d="M75.56,73.93a22,22,0,1,1,15.55-6.44A21.84,21.84,0,0,1,75.56,73.93Zm0-40A18,18,0,1,0,88.3,39.21,18,18,0,0,0,75.56,33.94Z"/><path class="cls-2" d="M85.65,62l-1.4-1.4a12.29,12.29,0,0,0,0-17.37l1.4-1.4A14.28,14.28,0,0,1,85.65,62Z"/><path class="cls-2" d="M114,99.38a5,5,0,0,1-3.53-1.46h0L90.64,78.09a5,5,0,0,1,0-7.06l3.59-3.59a5,5,0,0,1,7.06,0l19.83,19.83a5,5,0,0,1,0,7.06l-3.59,3.59A5,5,0,0,1,114,99.38Zm-2.13-2.86a3.09,3.09,0,0,0,4.25,0l3.59-3.59a3,3,0,0,0,0-4.25L99.89,68.84a3.09,3.09,0,0,0-4.25,0L92,72.43a3,3,0,0,0,0,4.25l19.83,19.83Z"/><rect class="cls-2" x="92.12" y="63.75" width="1.98" height="5.14" transform="translate(-19.62 85.26) rotate(-45)"/><rect class="cls-2" x="88.53" y="67.34" width="1.98" height="5.14" transform="translate(-23.22 83.78) rotate(-45)"/></svg>