<?xml version="1.0" encoding="UTF-8" standalone="no"?>
<svg
   xmlns:dc="http://purl.org/dc/elements/1.1/"
   xmlns:cc="http://creativecommons.org/ns#"
   xmlns:rdf="http://www.w3.org/1999/02/22-rdf-syntax-ns#"
   xmlns:svg="http://www.w3.org/2000/svg"
   xmlns="http://www.w3.org/2000/svg"
   xmlns:sodipodi="http://sodipodi.sourceforge.net/DTD/sodipodi-0.dtd"
   xmlns:inkscape="http://www.inkscape.org/namespaces/inkscape"
   id="Layer_1"
   data-name="Layer 1"
   viewBox="0 0 600 460"
   version="1.1"
   sodipodi:docname="templates.svg"
   inkscape:version="0.92.1 r15371">
  <metadata
     id="metadata255">
    <rdf:RDF>
      <cc:Work
         rdf:about="">
        <dc:format>image/svg+xml</dc:format>
        <dc:type
           rdf:resource="http://purl.org/dc/dcmitype/StillImage" />
        <dc:title>zbx</dc:title>
      </cc:Work>
    </rdf:RDF>
  </metadata>
  <sodipodi:namedview
     pagecolor="#ffffff"
     bordercolor="#666666"
     borderopacity="1"
     objecttolerance="10"
     gridtolerance="10"
     guidetolerance="10"
     inkscape:pageopacity="0"
     inkscape:pageshadow="2"
     inkscape:window-width="1829"
     inkscape:window-height="984"
     id="namedview253"
     showgrid="false"
     inkscape:zoom="1.9133333"
     inkscape:cx="258.4368"
     inkscape:cy="243.42908"
     inkscape:window-x="0"
     inkscape:window-y="0"
     inkscape:window-maximized="0"
     inkscape:current-layer="Layer_1" />
  <defs
     id="defs4">
    <style
       id="style2">.cls-1,.cls-3,.cls-4,.cls-7,.cls-8{fill:none;}.cls-1,.cls-3,.cls-9{stroke:#3e4c70;stroke-linejoin:round;}.cls-1,.cls-10,.cls-3,.cls-4,.cls-7,.cls-8,.cls-9{stroke-linecap:round;}.cls-1,.cls-7,.cls-8,.cls-9{stroke-width:1.98px;}.cls-2{fill:#3e4c70;}.cls-3{stroke-width:1.98px;}.cls-10,.cls-4,.cls-7,.cls-8{stroke:#d62027;stroke-miterlimit:10;}.cls-4{stroke-width:3.97px;}.cls-5{fill:#d40000;}.cls-10,.cls-6,.cls-9{fill:#fff;}.cls-7{stroke-dasharray:5.67;}.cls-10{stroke-width:1.42px;}.cls-11{fill:#d62027;}</style>
  </defs>
  <title
     id="title6">zbx</title>
  <path
     class="cls-2"
     d="M483,64.54a5,5,0,0,1,5-5.13,5.23,5.23,0,0,1,3.7,1.32l-.72.85a4.22,4.22,0,0,0-3-1.13,3.88,3.88,0,0,0-3.77,4.1,3.83,3.83,0,0,0,3.93,4.13,4.67,4.67,0,0,0,2.86-1V65.21h-3v-1H492v4a6,6,0,0,1-4,1.52A4.87,4.87,0,0,1,483,64.54Z"
     id="path12" />
  <path
     class="cls-2"
     d="M494.54,59.58h4.27a3.91,3.91,0,0,1,2.82,1,2.76,2.76,0,0,1,.76,2,2.9,2.9,0,0,1-2.69,2.89l3,4.05h-1.37l-2.88-3.86h-2.83V69.5h-1.12Zm4.17,5.06c1.49,0,2.55-.77,2.55-2.07s-.94-2-2.54-2h-3.06v4Z"
     id="path14" />
  <path
     class="cls-2"
     d="M508.46,59.51h1l4.52,10h-1.21l-1.16-2.62h-5.4l-1.18,2.62h-1.15Zm2.76,6.37L509,60.81l-2.27,5.06Z"
     id="path16" />
  <path
     class="cls-2"
     d="M516,59.58h3.71c2.24,0,3.71,1.19,3.71,3.18,0,2.14-1.79,3.25-3.9,3.25h-2.41v3.5H516Zm3.57,5.4c1.64,0,2.72-.88,2.72-2.21s-1.06-2.15-2.66-2.15h-2.51V65Z"
     id="path18" />
  <path
     class="cls-2"
     d="M525.46,59.58h1.12V64h5.73V59.58h1.12V69.5H532.3V65h-5.73V69.5h-1.12Z"
     id="path20" />
  <path
     class="cls-2"
     d="M535.58,68.05l.69-.82a4.73,4.73,0,0,0,3.4,1.4c1.33,0,2.21-.71,2.21-1.72s-.5-1.45-2.58-1.88C537,64.54,536,63.8,536,62.14s1.38-2.71,3.26-2.71a5.18,5.18,0,0,1,3.49,1.22l-.65.87a4.35,4.35,0,0,0-2.86-1.08c-1.29,0-2.11.71-2.11,1.63s.51,1.46,2.69,1.93S543,65.29,543,66.84c0,1.7-1.42,2.81-3.39,2.81A5.8,5.8,0,0,1,535.58,68.05Z"
     id="path22" />
  <path
     class="cls-2"
     d="M365.74,111.19H362.6v-1.62h8.05v1.62H367.5v8.31h-1.76Z"
     id="path24" />
  <path
     class="cls-2"
     d="M372.49,109.58h7.36v1.56h-5.61v2.58h5v1.56h-5v2.67h5.68v1.56h-7.43Z"
     id="path26" />
  <path
     class="cls-2"
     d="M382,109.58h1.86l3,4.69,3-4.69h1.86v9.92H390v-7.12l-3.13,4.68h-.06l-3.1-4.65v7.09H382Z"
     id="path28" />
  <path
     class="cls-2"
     d="M394.29,109.58h3.91c2.31,0,3.77,1.32,3.77,3.35,0,2.23-1.79,3.39-4,3.39h-2v3.19h-1.74Zm3.77,5.16c1.32,0,2.14-.74,2.14-1.8s-.84-1.77-2.14-1.77h-2v3.57Z"
     id="path30" />
  <path
     class="cls-2"
     d="M403.75,109.58h1.74v8.33h5.22v1.59h-7Z"
     id="path32" />
  <path
     class="cls-2"
     d="M416,109.51h1.62l4.37,10h-1.84l-1-2.4h-4.69l-1,2.4h-1.79Zm2.49,6.05-1.72-4-1.7,4Z"
     id="path34" />
  <path
     class="cls-2"
     d="M424.89,111.19h-3.15v-1.62h8.05v1.62h-3.15v8.31h-1.76Z"
     id="path36" />
  <path
     class="cls-2"
     d="M431.63,109.58H439v1.56h-5.61v2.58h5v1.56h-5v2.67h5.68v1.56h-7.43Z"
     id="path38" />
  <path
     class="cls-2"
     d="M440.46,118.05l1-1.25a4.57,4.57,0,0,0,3.13,1.29c1.08,0,1.76-.5,1.76-1.28s-.4-1.09-2.24-1.53c-2.11-.5-3.3-1.12-3.3-3,0-1.7,1.42-2.88,3.39-2.88a5.5,5.5,0,0,1,3.6,1.25l-.94,1.32a4.51,4.51,0,0,0-2.69-1c-1,0-1.62.52-1.62,1.21s.45,1.11,2.35,1.56c2.1.51,3.19,1.26,3.19,2.93,0,1.86-1.46,3-3.54,3A6.11,6.11,0,0,1,440.46,118.05Z"
     id="path40" />
  <path
     class="cls-2"
     d="M483.43,122.58h3.45a5,5,0,1,1,0,9.92h-3.45Zm3.45,8.89a3.93,3.93,0,1,0,0-7.85h-2.32v7.85Z"
     id="path42" />
  <path
     class="cls-2"
     d="M494.62,122.58h1.12v9.92h-1.12Z"
     id="path44" />
  <path
     class="cls-2"
     d="M498,131.05l.69-.82a4.73,4.73,0,0,0,3.4,1.4c1.33,0,2.21-.71,2.21-1.72s-.5-1.45-2.58-1.88c-2.28-.5-3.33-1.23-3.33-2.89s1.38-2.71,3.26-2.71a5.18,5.18,0,0,1,3.49,1.22l-.65.87a4.36,4.36,0,0,0-2.86-1.08c-1.29,0-2.11.71-2.11,1.63s.51,1.46,2.69,1.93,3.23,1.29,3.23,2.83c0,1.7-1.42,2.81-3.39,2.81A5.8,5.8,0,0,1,498,131.05Z"
     id="path46" />
  <path
     class="cls-2"
     d="M507.27,127.54a5,5,0,0,1,5-5.13,5.11,5.11,0,0,1,3.84,1.6l-.74.79a4.31,4.31,0,0,0-3.12-1.36,4.11,4.11,0,0,0,0,8.19,4.31,4.31,0,0,0,3.2-1.43l.74.78a5.13,5.13,0,0,1-4,1.69A5,5,0,0,1,507.27,127.54Z"
     id="path48" />
  <path
     class="cls-2"
     d="M517.45,127.54a5.06,5.06,0,1,1,5,5.13A5,5,0,0,1,517.45,127.54Zm9,0a4,4,0,0,0-3.91-4.1,4.1,4.1,0,1,0,3.91,4.1Z"
     id="path50" />
  <path
     class="cls-2"
     d="M528.5,122.58h1.25l3.53,8.55,3.54-8.55H538l-4.27,10h-1Z"
     id="path52" />
  <path
     class="cls-2"
     d="M540,122.58h7.17v1H541.1V127h5.41v1H541.1v3.47h6.12v1H540Z"
     id="path54" />
  <path
     class="cls-2"
     d="M549.48,122.58h4.27a3.91,3.91,0,0,1,2.82,1,2.76,2.76,0,0,1,.77,2,2.9,2.9,0,0,1-2.69,2.89l3,4.05h-1.37l-2.88-3.86H550.6v3.86h-1.12Zm4.17,5.06c1.49,0,2.55-.77,2.55-2.07s-.94-2-2.54-2H550.6v4Z"
     id="path56" />
  <path
     class="cls-2"
     d="M562.48,128.57l-4.12-6h1.36l3.34,5,3.37-5h1.3l-4.13,6v3.94h-1.13Z"
     id="path58" />
  <path
     class="cls-2"
     d="M483.43,139.59h4.27a3.91,3.91,0,0,1,2.82,1,2.76,2.76,0,0,1,.77,2,2.9,2.9,0,0,1-2.69,2.89l3,4.05h-1.37l-2.88-3.86h-2.83v3.86h-1.12Zm4.17,5.06c1.49,0,2.55-.77,2.55-2.07s-.94-2-2.54-2h-3.06v4Z"
     id="path60" />
  <path
     class="cls-2"
     d="M493.52,145.36v-5.77h1.12v5.7c0,2.14,1.13,3.35,3,3.35s3-1.11,3-3.27v-5.77h1.12v5.68c0,2.89-1.66,4.39-4.14,4.39S493.52,148.16,493.52,145.36Z"
     id="path62" />
  <path
     class="cls-2"
     d="M504.44,139.59h1.12v8.89h5.58v1h-6.71Z"
     id="path64" />
  <path
     class="cls-2"
     d="M513.21,139.59h7.17v1h-6.05V144h5.41v1h-5.41v3.47h6.12v1h-7.24Z"
     id="path66" />
  <path
     class="cls-2"
     d="M522.05,148.06l.69-.82a4.73,4.73,0,0,0,3.4,1.4c1.33,0,2.21-.71,2.21-1.72s-.5-1.45-2.58-1.88c-2.28-.5-3.33-1.23-3.33-2.89s1.38-2.71,3.26-2.71a5.18,5.18,0,0,1,3.49,1.22l-.65.87a4.35,4.35,0,0,0-2.86-1.08c-1.29,0-2.11.71-2.11,1.63s.51,1.46,2.69,1.93,3.23,1.29,3.23,2.83c0,1.7-1.42,2.81-3.39,2.81A5.8,5.8,0,0,1,522.05,148.06Z"
     id="path68" />
  <path
     class="cls-2"
     d="M486.05,192.61h-3.33v-1h7.8v1h-3.33v8.89h-1.13Z"
     id="path70" />
  <path
     class="cls-2"
     d="M492.62,191.58h4.27a3.91,3.91,0,0,1,2.82,1,2.76,2.76,0,0,1,.76,2,2.9,2.9,0,0,1-2.69,2.89l3,4.05h-1.37l-2.88-3.86h-2.83v3.86h-1.12Zm4.17,5.06c1.49,0,2.55-.77,2.55-2.07s-.94-2-2.54-2h-3.06v4Z"
     id="path72" />
  <path
     class="cls-2"
     d="M503,191.58h1.12v9.92H503Z"
     id="path74" />
  <path
     class="cls-2"
     d="M506.55,196.54a5,5,0,0,1,5-5.13,5.22,5.22,0,0,1,3.7,1.32l-.72.85a4.22,4.22,0,0,0-3-1.13,3.88,3.88,0,0,0-3.77,4.1,3.83,3.83,0,0,0,3.93,4.13,4.67,4.67,0,0,0,2.86-1v-2.47h-3v-1h4.1v4a6,6,0,0,1-4,1.52A4.87,4.87,0,0,1,506.55,196.54Z"
     id="path76" />
  <path
     class="cls-2"
     d="M517.66,196.54a5,5,0,0,1,5-5.13,5.23,5.23,0,0,1,3.7,1.32l-.72.85a4.22,4.22,0,0,0-3-1.13,3.88,3.88,0,0,0-3.77,4.1,3.83,3.83,0,0,0,3.93,4.13,4.67,4.67,0,0,0,2.86-1v-2.47h-3v-1h4.1v4a6,6,0,0,1-4,1.52A4.87,4.87,0,0,1,517.66,196.54Z"
     id="path78" />
  <path
     class="cls-2"
     d="M529.21,191.58h7.17v1h-6.05V196h5.42v1h-5.42v3.47h6.12v1h-7.24Z"
     id="path80" />
  <path
     class="cls-2"
     d="M538.71,191.58H543a3.91,3.91,0,0,1,2.82,1,2.76,2.76,0,0,1,.77,2,2.91,2.91,0,0,1-2.69,2.89l3,4.05h-1.37l-2.88-3.86h-2.83v3.86h-1.12Zm4.17,5.06c1.49,0,2.55-.77,2.55-2.07s-.94-2-2.54-2h-3.06v4Z"
     id="path82" />
  <path
     class="cls-2"
     d="M548.3,200.05l.69-.82a4.73,4.73,0,0,0,3.4,1.4c1.33,0,2.21-.71,2.21-1.72s-.5-1.45-2.58-1.88c-2.28-.5-3.33-1.23-3.33-2.89s1.38-2.71,3.26-2.71a5.18,5.18,0,0,1,3.49,1.22l-.65.87a4.36,4.36,0,0,0-2.86-1.08c-1.29,0-2.11.71-2.11,1.63s.51,1.46,2.69,1.93,3.23,1.29,3.23,2.83c0,1.7-1.42,2.81-3.39,2.81A5.8,5.8,0,0,1,548.3,200.05Z"
     id="path84" />
  <path
     class="cls-2"
     d="M483.43,252.58h1.13l3.62,5.42,3.61-5.42h1.13v9.92h-1.12v-8l-3.62,5.32h-.06l-3.62-5.3v8h-1.09Z"
     id="path86" />
  <path
     class="cls-2"
     d="M495.73,252.58h7.17v1h-6.05V257h5.42v1h-5.42v3.47H503v1h-7.24Z"
     id="path88" />
  <path
     class="cls-2"
     d="M507.85,253.61h-3.33v-1h7.8v1H509v8.89h-1.13Z"
     id="path90" />
  <path
     class="cls-2"
     d="M514.41,252.58h4.27a3.91,3.91,0,0,1,2.82,1,2.76,2.76,0,0,1,.77,2,2.9,2.9,0,0,1-2.69,2.89l3,4.05h-1.37l-2.88-3.86h-2.83v3.86h-1.12Zm4.17,5.06c1.49,0,2.55-.77,2.55-2.07s-.94-2-2.54-2h-3.06v4Z"
     id="path92" />
  <path
     class="cls-2"
     d="M524.76,252.58h1.12v9.92h-1.12Z"
     id="path94" />
  <path
     class="cls-2"
     d="M528.35,257.54a5,5,0,0,1,5-5.13,5.12,5.12,0,0,1,3.84,1.6l-.74.79a4.31,4.31,0,0,0-3.12-1.36,4.11,4.11,0,0,0,0,8.19,4.31,4.31,0,0,0,3.2-1.43l.74.78a5.13,5.13,0,0,1-4,1.69A5,5,0,0,1,528.35,257.54Z"
     id="path96" />
  <path
     class="cls-2"
     d="M538.59,261.05l.69-.82a4.72,4.72,0,0,0,3.4,1.4c1.33,0,2.21-.71,2.21-1.72s-.5-1.45-2.58-1.88c-2.28-.5-3.33-1.23-3.33-2.89s1.38-2.71,3.26-2.71a5.18,5.18,0,0,1,3.49,1.22l-.65.87a4.36,4.36,0,0,0-2.86-1.08c-1.29,0-2.11.71-2.11,1.63s.51,1.46,2.69,1.93,3.23,1.29,3.23,2.83c0,1.7-1.42,2.81-3.39,2.81A5.8,5.8,0,0,1,538.59,261.05Z"
     id="path98" />
  <path
     class="cls-2"
     d="M483.43,310.58h3.45a5,5,0,1,1,0,9.92h-3.45Zm3.45,8.89a3.93,3.93,0,1,0,0-7.85h-2.32v7.85Z"
     id="path100" />
  <path
     class="cls-2"
     d="M494.52,310.58h7.17v1h-6.05V315h5.42v1h-5.42v3.47h6.12v1h-7.24Z"
     id="path102" />
  <path
     class="cls-2"
     d="M504,310.58h3.71c2.24,0,3.71,1.19,3.71,3.18,0,2.14-1.79,3.25-3.9,3.25h-2.41v3.5H504Zm3.57,5.4c1.64,0,2.72-.88,2.72-2.21s-1.06-2.15-2.67-2.15h-2.51V316Z"
     id="path104" />
  <path
     class="cls-2"
     d="M513.48,310.58h7.17v1H514.6V315H520v1H514.6v3.47h6.12v1h-7.24Z"
     id="path106" />
  <path
     class="cls-2"
     d="M523,310.58h1l6.25,8v-8h1.09v9.92h-.89l-6.41-8.14v8.14H523Z"
     id="path108" />
  <path
     class="cls-2"
     d="M534.17,310.58h3.45a5,5,0,1,1,0,9.92h-3.45Zm3.45,8.89a3.93,3.93,0,1,0,0-7.85h-2.33v7.85Z"
     id="path110" />
  <path
     class="cls-2"
     d="M545.26,310.58h7.17v1h-6.05V315h5.42v1h-5.42v3.47h6.12v1h-7.24Z"
     id="path112" />
  <path
     class="cls-2"
     d="M554.31,315.54a5,5,0,0,1,5-5.13,5.11,5.11,0,0,1,3.84,1.6l-.74.79a4.31,4.31,0,0,0-3.12-1.36,4.11,4.11,0,0,0,0,8.19,4.31,4.31,0,0,0,3.2-1.43l.74.78a5.13,5.13,0,0,1-4,1.69A5,5,0,0,1,554.31,315.54Z"
     id="path114" />
  <path
     class="cls-2"
     d="M565.31,310.58h1.12v9.92h-1.12Z"
     id="path116" />
  <path
     class="cls-2"
     d="M569.34,310.58h7.17v1h-6.05V315h5.42v1h-5.42v3.47h6.12v1h-7.24Z"
     id="path118" />
  <path
     class="cls-2"
     d="M578.18,319.05l.69-.82a4.72,4.72,0,0,0,3.4,1.4c1.33,0,2.21-.71,2.21-1.72s-.5-1.45-2.58-1.88c-2.28-.5-3.33-1.23-3.33-2.89s1.38-2.71,3.26-2.71a5.18,5.18,0,0,1,3.49,1.22l-.65.87a4.36,4.36,0,0,0-2.86-1.08c-1.29,0-2.11.71-2.11,1.63s.51,1.46,2.69,1.93,3.23,1.29,3.23,2.83c0,1.7-1.42,2.81-3.39,2.81A5.8,5.8,0,0,1,578.18,319.05Z"
     id="path120" />
  <polygon
     class="cls-3"
     points="395.33 234.83 375.79 189.83 395.33 144.83 414.88 189.83 395.33 234.83"
     id="polygon122" />
  <polyline
     class="cls-3"
     points="404.88 166.81 414.43 144.83 433.97 189.83 414.43 234.83 404.88 212.85"
     id="polyline124" />
  <polyline
     class="cls-3"
     points="423.97 166.81 433.52 144.83 453.06 189.83 433.52 234.83 423.97 212.85"
     id="polyline126" />
  <line
     class="cls-4"
     x1="360.39"
     y1="190.46"
     x2="318.49"
     y2="190.46"
     id="line128" />
  <polyline
     class="cls-4"
     points="338.51 212.66 316.69 190.84 338.87 168.66"
     id="polyline130" />
  <g
     id="g4819"
     transform="rotate(-155,230.00104,193.32479)">
    <path
       id="path10"
       d="M 164.81,223.93 A 72,72 0 0 1 280.92,142.41"
       class="cls-1"
       inkscape:connector-curvature="0"
       style="fill:none;stroke:#3e4c70;stroke-width:1.98000002px;stroke-linecap:round;stroke-linejoin:round" />
    <polyline
       id="polyline132"
       points="282.49 124.78 282.49 143.78 264.49 143.78"
       class="cls-1"
       style="fill:none;stroke:#3e4c70;stroke-width:1.98000002px;stroke-linecap:round;stroke-linejoin:round" />
    <g
       id="g4810">
      <g
         id="g4804">
        <g
           id="g4800">
          <path
             class="cls-1"
             d="M 293.4,159.16 A 72,72 0 0 1 179.09,244.24"
             id="path8"
             inkscape:connector-curvature="0"
             style="fill:none;stroke:#3e4c70;stroke-width:1.98000002px;stroke-linecap:round;stroke-linejoin:round" />
        </g>
      </g>
      <polyline
         class="cls-1"
         points="177.51 261.87 177.51 242.87 195.51 242.87"
         id="polyline134"
         style="fill:none;stroke:#3e4c70;stroke-width:1.98000002px;stroke-linecap:round;stroke-linejoin:round" />
    </g>
  </g>
  <path
     class="cls-5"
     d="m 191.63415,180.76941 h 86.03079 v 22.53146 h -86.03079 z m 0,0"
     id="path136"
     inkscape:connector-curvature="0"
     style="fill:#d40000;stroke-width:0.86030787" />
  <path
     class="cls-6"
     d="m 195.31627,184.20204 h 12.44005 v 1.61737 l -10.01398,12.2766 H 207.98 v 1.78083 h -12.90462 v -1.61737 l 10.01399,-12.26799 h -9.7731 v -1.78084 z m 0,0"
     id="path138"
     inkscape:connector-curvature="0"
     style="fill:#ffffff;stroke-width:0.86030787" />
  <path
     class="cls-6"
     d="m 216.41102,186.29258 -2.90784,7.79439 h 5.82428 z m -1.21304,-2.09054 h 2.42607 l 6.02216,15.6662 h -2.2282 l -1.3937,-4.01764 h -7.14056 l -1.46252,4.01764 h -2.26261 l 6.02216,-15.6662 z m 0,0"
     id="path140"
     inkscape:connector-curvature="0"
     style="fill:#ffffff;stroke-width:0.86030787" />
  <path
     class="cls-6"
     d="m 228.1112,192.38356 v 5.71245 h 3.44124 a 3.8885916,3.8885916 0 0 0 2.58092,-0.70546 3.2347576,3.2347576 0 0 0 0,-4.30153 3.9402101,3.9402101 0 0 0 -2.58092,-0.69685 z m 0,-6.4437 v 4.72309 h 3.17454 a 3.8627824,3.8627824 0 0 0 2.34004,-0.58501 2.4346713,2.4346713 0 0 0 0,-3.55307 3.8369732,3.8369732 0 0 0 -2.34004,-0.58501 z m -2.14216,-1.72062 h 5.47156 a 6.1425983,6.1425983 0 0 1 3.77675,1.00656 3.3896131,3.3896131 0 0 1 1.32487,2.86483 3.5616746,3.5616746 0 0 1 -0.67964,2.28842 3.054093,3.054093 0 0 1 -1.99592,1.05817 4.1810963,4.1810963 0 0 1 2.45188,1.40231 4.0520501,4.0520501 0 0 1 0.86031,2.65835 3.8971947,3.8971947 0 0 1 -1.44532,3.24336 6.4695153,6.4695153 0 0 1 -4.10367,1.14421 h -5.68663 v -15.68341 z m 0,0"
     id="path142"
     inkscape:connector-curvature="0"
     style="fill:#ffffff;stroke-width:0.86030787" />
  <path
     class="cls-6"
     d="m 242.77945,192.38356 v 5.71245 h 3.44124 a 3.8885916,3.8885916 0 0 0 2.58092,-0.70546 3.2347576,3.2347576 0 0 0 0,-4.30153 3.9402101,3.9402101 0 0 0 -2.58092,-0.69685 z m 0,-6.4437 v 4.72309 h 3.17454 a 3.8627824,3.8627824 0 0 0 2.34004,-0.58501 2.4346713,2.4346713 0 0 0 0,-3.55307 3.8369732,3.8369732 0 0 0 -2.34004,-0.58501 z m -2.14216,-1.72062 h 5.47156 a 6.1425983,6.1425983 0 0 1 3.77675,1.00656 3.3896131,3.3896131 0 0 1 1.32487,2.86483 3.5616746,3.5616746 0 0 1 -0.67964,2.28842 3.054093,3.054093 0 0 1 -1.99592,1.05817 4.1810963,4.1810963 0 0 1 2.45188,1.40231 4.0520501,4.0520501 0 0 1 0.86031,2.65835 3.8971947,3.8971947 0 0 1 -1.44532,3.24336 6.4695153,6.4695153 0 0 1 -4.10367,1.14421 h -5.62641 v -15.68341 z m 0,0"
     id="path144"
     inkscape:connector-curvature="0"
     style="fill:#ffffff;stroke-width:0.86030787" />
  <path
     class="cls-6"
     d="m 261.50836,184.20204 h 2.39165 l 3.72514,5.62641 3.75954,-5.62641 h 2.27982 l -4.90376,7.33842 5.51458,8.32778 h -2.35725 l -4.30154,-6.55554 -4.37897,6.55554 h -2.27981 l 5.52318,-8.26756 z m 0,0"
     id="path146"
     inkscape:connector-curvature="0"
     style="fill:#ffffff;stroke-width:0.86030787" />
  <path
     class="cls-6"
     d="m 255.29693,184.20204 h 2.14217 v 15.6662 h -2.14217 z m 0,0"
     id="path148"
     inkscape:connector-curvature="0"
     style="fill:#ffffff;stroke-width:0.86030787" />
  <line
     class="cls-7"
     x1="230.29"
     y1="101.7"
     x2="230.29"
     y2="63.7"
     id="line150" />
  <polyline
     class="cls-8"
     points="236.9 96.73 230.01 103.62 223.01 96.62"
     id="polyline152" />
  <line
     class="cls-7"
     x1="229.63"
     y1="284.62"
     x2="229.63"
     y2="322.62"
     id="line154" />
  <polyline
     class="cls-8"
     points="223.01 289.59 229.9 282.7 236.9 289.7"
     id="polyline156" />
  <line
     class="cls-7"
     x1="165.52"
     y1="128.25"
     x2="138.65"
     y2="101.38"
     id="line158" />
  <polyline
     class="cls-8"
     points="166.68 120.07 166.68 129.81 156.78 129.81"
     id="polyline160" />
  <line
     class="cls-7"
     x1="165.05"
     y1="257.6"
     x2="138.18"
     y2="284.47"
     id="line162" />
  <polyline
     class="cls-8"
     points="156.86 256.44 166.6 256.44 166.6 266.34"
     id="polyline164" />
  <line
     class="cls-7"
     x1="138.5"
     y1="192.83"
     x2="100.5"
     y2="192.83"
     id="line166" />
  <polyline
     class="cls-8"
     points="133.53 186.22 140.42 193.1 133.42 200.1"
     id="polyline168" />
  <rect
     class="cls-3"
     x="32.61"
     y="163.33"
     width="34.17"
     height="18.33"
     rx="6"
     ry="6"
     id="rect170" />
  <rect
     class="cls-1"
     x="61.78"
     y="199.99"
     width="25.83"
     height="13.33"
     rx="6"
     ry="6"
     id="rect172" />
  <rect
     class="cls-1"
     x="13.44"
     y="199.99"
     width="25.83"
     height="13.33"
     rx="6"
     ry="6"
     id="rect174" />
  <polyline
     class="cls-1"
     points="75.09 200 75.09 190.83 25.92 190.83 25.92 200"
     id="polyline176" />
  <line
     class="cls-1"
     x1="50.11"
     y1="181.66"
     x2="50.11"
     y2="190.83"
     id="line178" />
  <circle
     class="cls-6"
     cx="49.67"
     cy="191.25"
     r="4.01"
     id="circle180" />
  <path
     class="cls-2"
     d="M49.67,188.23a3,3,0,1,1-3,3,3,3,0,0,1,3-3m0-2a5,5,0,1,0,5,5,5,5,0,0,0-5-5Z"
     id="path182" />
  <line
     class="cls-1"
     x1="19.25"
     y1="204.16"
     x2="28.42"
     y2="204.16"
     id="line184" />
  <line
     class="cls-1"
     x1="19.25"
     y1="207.49"
     x2="28.42"
     y2="207.49"
     id="line186" />
  <line
     class="cls-1"
     x1="67.59"
     y1="204.16"
     x2="76.75"
     y2="204.16"
     id="line188" />
  <line
     class="cls-1"
     x1="67.59"
     y1="207.49"
     x2="76.75"
     y2="207.49"
     id="line190" />
  <rect
     class="cls-3"
     x="85.8"
     y="307.33"
     width="47.44"
     height="14"
     rx="6"
     ry="6"
     id="rect192" />
  <line
     class="cls-3"
     x1="91.23"
     y1="314.33"
     x2="96.67"
     y2="314.33"
     id="line194" />
  <line
     class="cls-3"
     x1="100.56"
     y1="314.33"
     x2="113.78"
     y2="314.33"
     id="line196" />
  <path
     class="cls-2"
     d="M246.9,332.31a4,4,0,0,1,4,4v.83a4,4,0,0,1-4,4H212.15a4,4,0,0,1-4-4v-.83a4,4,0,0,1,4-4H246.9m0-2H212.15a6,6,0,0,0-6,6v.83a6,6,0,0,0,6,6H246.9a6,6,0,0,0,6-6v-.83a6,6,0,0,0-6-6Z"
     id="path198" />
  <line
     class="cls-1"
     x1="212.54"
     y1="336.74"
     x2="218.96"
     y2="336.74"
     id="line200" />
  <path
     class="cls-2"
     d="M246.9,347.9a4,4,0,0,1,4,4v.83a4,4,0,0,1-4,4H212.15a4,4,0,0,1-4-4v-.83a4,4,0,0,1,4-4H246.9m0-2H212.15a6,6,0,0,0-6,6v.83a6,6,0,0,0,6,6H246.9a6,6,0,0,0,6-6v-.83a6,6,0,0,0-6-6Z"
     id="path202" />
  <line
     class="cls-1"
     x1="212.54"
     y1="352.33"
     x2="218.96"
     y2="352.33"
     id="line204" />
  <path
     class="cls-2"
     d="M246.9,363.48a4,4,0,0,1,4,4v.83a4,4,0,0,1-4,4H212.15a4,4,0,0,1-4-4v-.83a4,4,0,0,1,4-4H246.9m0-2H212.15a6,6,0,0,0-6,6v.83a6,6,0,0,0,6,6H246.9a6,6,0,0,0,6-6v-.83a6,6,0,0,0-6-6Z"
     id="path206" />
  <line
     class="cls-1"
     x1="212.54"
     y1="367.91"
     x2="218.96"
     y2="367.91"
     id="line208" />
  <rect
     class="cls-3"
     x="78.03"
     y="78.89"
     width="42.98"
     height="21.14"
     rx="6"
     ry="6"
     id="rect210" />
  <path
     class="cls-1"
     d="M85.08,78.69V73.06a4.24,4.24,0,0,1,4.23-4.23h20.44A4.24,4.24,0,0,1,114,73.06v5.64"
     id="path212" />
  <path
     class="cls-9"
     d="M114,90.87V110.6a4.24,4.24,0,0,1-4.23,4.23H89.31a4.24,4.24,0,0,1-4.23-4.23V90.87Z"
     id="path214" />
  <path
     class="cls-1"
     d="M104.81,302.33a4.19,4.19,0,0,1,8.37,0"
     id="path216" />
  <path
     class="cls-1"
     d="M99.58,302.33a9.42,9.42,0,0,1,18.84,0"
     id="path218" />
  <path
     class="cls-1"
     d="M94,302.33a15,15,0,0,1,30,0"
     id="path220" />
  <g
     id="g4734">
    <path
       id="path222"
       d="M242.74,29.9a10.67,10.67,0,0,0-4.07.81,10.71,10.71,0,0,0-21.13-.77,10.71,10.71,0,0,0,.71,21.39h24.49a10.71,10.71,0,0,0,0-21.43Z"
       class="cls-3" />
    <path
       id="path224"
       d="M212.54,38.57a8.13,8.13,0,0,0,8.13,8.13h10.25"
       class="cls-3" />
  </g>
  <line
     class="cls-3"
     x1="89.99"
     y1="102.85"
     x2="104.79"
     y2="102.85"
     id="line226" />
  <line
     class="cls-3"
     x1="89.99"
     y1="97.92"
     x2="104.79"
     y2="97.92"
     id="line228" />
  <line
     class="cls-3"
     x1="89.99"
     y1="107.78"
     x2="104.79"
     y2="107.78"
     id="line230" />
  <g
     id="g4823"
     transform="matrix(0.56971196,0,0,0.60434043,96.534868,95.488852)">
    <polygon
       id="polygon244"
       points="138,181.3 125.5,165.33 138,149.35 150.5,165.33 "
       class="cls-10"
       style="fill:#ffffff;stroke:#d62027;stroke-width:1.41999996px;stroke-linecap:round;stroke-miterlimit:10" />
    <polygon
       id="polygon246"
       points="143.69,164.23 135.93,164.23 136.36,158.28 131.67,167.25 139.06,167.25 136.36,173.21 "
       class="cls-11"
       style="fill:#d62027" />
  </g>
  <g
     transform="matrix(0.56971196,0,0,0.60434043,109.7155,51.471374)"
     id="g4829">
    <polygon
       style="fill:#ffffff;stroke:#d62027;stroke-width:1.41999996px;stroke-linecap:round;stroke-miterlimit:10"
       class="cls-10"
       points="138,181.3 125.5,165.33 138,149.35 150.5,165.33 "
       id="polygon4825" />
    <polygon
       style="fill:#d62027"
       class="cls-11"
       points="143.69,164.23 135.93,164.23 136.36,158.28 131.67,167.25 139.06,167.25 136.36,173.21 "
       id="polygon4827" />
  </g>
  <g
     id="g4835"
     transform="matrix(0.56971196,0,0,0.60434043,153.09529,37.359876)">
    <polygon
       id="polygon4831"
       points="125.5,165.33 138,149.35 150.5,165.33 138,181.3 "
       class="cls-10"
       style="fill:#ffffff;stroke:#d62027;stroke-width:1.41999996px;stroke-linecap:round;stroke-miterlimit:10" />
    <polygon
       id="polygon4833"
       points="135.93,164.23 136.36,158.28 131.67,167.25 139.06,167.25 136.36,173.21 143.69,164.23 "
       class="cls-11"
       style="fill:#d62027" />
  </g>
  <g
     transform="matrix(0.56971196,0,0,0.60434043,109.19285,134.57242)"
     id="g4841">
    <polygon
       style="fill:#ffffff;stroke:#d62027;stroke-width:1.41999996px;stroke-linecap:round;stroke-miterlimit:10"
       class="cls-10"
       points="138,181.3 125.5,165.33 138,149.35 150.5,165.33 "
       id="polygon4837" />
    <polygon
       style="fill:#d62027"
       class="cls-11"
       points="143.69,164.23 135.93,164.23 136.36,158.28 131.67,167.25 139.06,167.25 136.36,173.21 "
       id="polygon4839" />
  </g>
  <g
     transform="matrix(0.56971196,0,0,0.60434043,151.0047,149.20656)"
     id="g4847">
    <polygon
       style="fill:#ffffff;stroke:#d62027;stroke-width:1.41999996px;stroke-linecap:round;stroke-miterlimit:10"
       class="cls-10"
       points="138,149.35 150.5,165.33 138,181.3 125.5,165.33 "
       id="polygon4843" />
    <polygon
       style="fill:#d62027"
       class="cls-11"
       points="136.36,158.28 131.67,167.25 139.06,167.25 136.36,173.21 143.69,164.23 135.93,164.23 "
       id="polygon4845" />
  </g>
  <g
     id="g4853"
     transform="matrix(0.56971196,0,0,0.60434043,193.33919,135.61771)">
    <polygon
       id="polygon4849"
       points="150.5,165.33 138,181.3 125.5,165.33 138,149.35 "
       class="cls-10"
       style="fill:#ffffff;stroke:#d62027;stroke-width:1.41999996px;stroke-linecap:round;stroke-miterlimit:10" />
    <polygon
       id="polygon4851"
       points="131.67,167.25 139.06,167.25 136.36,173.21 143.69,164.23 135.93,164.23 136.36,158.28 "
       class="cls-11"
       style="fill:#d62027" />
  </g>
  <g
     transform="matrix(0.56971196,0,0,0.60434043,190.2033,51.994017)"
     id="g4859">
    <polygon
       style="fill:#ffffff;stroke:#d62027;stroke-width:1.41999996px;stroke-linecap:round;stroke-miterlimit:10"
       class="cls-10"
       points="138,181.3 125.5,165.33 138,149.35 150.5,165.33 "
       id="polygon4855" />
    <polygon
       style="fill:#d62027"
       class="cls-11"
       points="139.06,167.25 136.36,173.21 143.69,164.23 135.93,164.23 136.36,158.28 131.67,167.25 "
       id="polygon4857" />
  </g>
</svg>
